<svg preserveAspectRatio="none" overflow="visible" style="display: block;" width="20" height="20" viewBox="0 0 20 20" fill="none" xmlns="http://www.w3.org/2000/svg">
<g id="SVG">
<path id="Vector" d="M6.66667 2.5H13.3333C14.2538 2.5 15 3.24619 15 4.16667V15.8333C15 16.7538 14.2538 17.5 13.3333 17.5H6.66667C5.74619 17.5 5 16.7538 5 15.8333V4.16667C5 3.24619 5.74619 2.5 6.66667 2.5V2.5" stroke="white" stroke-width="1.66667"/>
<g id="Vector_2">
<path d="M9.16667 14.1667C9.16667 14.6266 9.54007 15 10 15C10.4599 15 10.8333 14.6266 10.8333 14.1667C10.8333 13.7067 10.4599 13.3333 10 13.3333C9.54007 13.3333 9.16667 13.7067 9.16667 14.1667V14.1667" fill="white"/>
<path d="M9.16667 14.1667C9.16667 14.6266 9.54007 15 10 15C10.4599 15 10.8333 14.6266 10.8333 14.1667C10.8333 13.7067 10.4599 13.3333 10 13.3333C9.54007 13.3333 9.16667 13.7067 9.16667 14.1667V14.1667" stroke="white" stroke-width="0.833333"/>
</g>
</g>
</svg>
