<svg preserveAspectRatio="none" overflow="visible" style="display: block;" width="16" height="16" viewBox="0 0 16 16" fill="none" xmlns="http://www.w3.org/2000/svg">
<g id="SVG" clip-path="url(#clip0_0_35)">
<path id="Vector" d="M0.038 16L1.16267 11.8913C0.468667 10.6887 0.104 9.32533 0.104667 7.92733C0.106667 3.55667 3.66333 0 8.03333 0C10.154 0.000666667 12.1447 0.826667 13.642 2.32533C15.1387 3.824 15.9627 5.816 15.962 7.93467C15.96 12.306 12.4033 15.8627 8.03333 15.8627C6.70667 15.862 5.39933 15.5293 4.24133 14.8973L0.038 16H0.038M4.436 13.462C5.55333 14.1253 6.62 14.5227 8.03067 14.5233C11.6627 14.5233 14.6213 11.5673 14.6233 7.93333C14.6247 4.292 11.68 1.34 8.036 1.33867C4.40133 1.33867 1.44467 4.29467 1.44333 7.928C1.44267 9.41133 1.87733 10.522 2.60733 11.684L1.94133 14.116L4.436 13.462V13.462M12.0273 9.81933C11.978 9.73667 11.846 9.68733 11.6473 9.588C11.4493 9.48867 10.4753 9.00933 10.2933 8.94333C10.112 8.87733 9.98 8.844 9.84733 9.04267C9.71533 9.24067 9.33533 9.68733 9.22 9.81933C9.10467 9.95133 8.98867 9.968 8.79067 9.86867C8.59267 9.76933 7.954 9.56067 7.19733 8.88533C6.60867 8.36 6.21067 7.71133 6.09533 7.51267C5.98 7.31467 6.08333 7.20733 6.182 7.10867C6.27133 7.02 6.38 6.87733 6.47933 6.76133C6.58 6.64667 6.61267 6.564 6.67933 6.43133C6.74533 6.29933 6.71267 6.18333 6.66267 6.084C6.61267 5.98533 6.21667 5.01 6.052 4.61333C5.89067 4.22733 5.72733 4.27933 5.606 4.27333L5.226 4.26667C5.094 4.26667 4.87933 4.316 4.698 4.51467C4.51667 4.71333 4.00467 5.192 4.00467 6.16733C4.00467 7.14267 4.71467 8.08467 4.81333 8.21667C4.91267 8.34867 6.21 10.35 8.19733 11.208C8.67 11.412 9.03933 11.534 9.32667 11.6253C9.80133 11.776 10.2333 11.7547 10.5747 11.704C10.9553 11.6473 11.7467 11.2247 11.912 10.762C12.0773 10.2987 12.0773 9.902 12.0273 9.81933V9.81933" fill="white"/>
</g>
<defs>
<clipPath id="clip0_0_35">
<rect width="16" height="16" fill="white"/>
</clipPath>
</defs>
</svg>
